<?xml version="1.0" encoding="UTF-8" standalone="no"?>
<!-- Generator: Adobe Illustrator 19.0.0, SVG Export Plug-In . SVG Version: 6.00 Build 0)  -->

<svg
   version="1.1"
   id="Layer_1"
   x="0px"
   y="0px"
   viewBox="0 0 79.999998 79.999998"
   xml:space="preserve"
   sodipodi:docname="gmail.svg"
   width="80"
   height="80"
   inkscape:version="1.1.2 (b8e25be833, 2022-02-05)"
   xmlns:inkscape="http://www.inkscape.org/namespaces/inkscape"
   xmlns:sodipodi="http://sodipodi.sourceforge.net/DTD/sodipodi-0.dtd"
   xmlns:xlink="http://www.w3.org/1999/xlink"
   xmlns="http://www.w3.org/2000/svg"
   xmlns:svg="http://www.w3.org/2000/svg"><defs
   id="defs41"><linearGradient
     inkscape:collect="always"
     id="linearGradient940"><stop
       style="stop-color:#3ee2b5;stop-opacity:1;"
       offset="0"
       id="stop936" /><stop
       style="stop-color:#ac61df;stop-opacity:1"
       offset="1"
       id="stop938" /></linearGradient><linearGradient
     inkscape:collect="always"
     xlink:href="#linearGradient940"
     id="linearGradient942"
     x1="0.001"
     y1="149.9985"
     x2="299.996"
     y2="149.9985"
     gradientUnits="userSpaceOnUse" /></defs><sodipodi:namedview
   id="namedview39"
   pagecolor="#505050"
   bordercolor="#eeeeee"
   borderopacity="1"
   inkscape:pageshadow="0"
   inkscape:pageopacity="0"
   inkscape:pagecheckerboard="0"
   showgrid="false"
   width="80px"
   inkscape:zoom="7.8348212"
   inkscape:cx="41.800571"
   inkscape:cy="47.480343"
   inkscape:window-width="1920"
   inkscape:window-height="1017"
   inkscape:window-x="-8"
   inkscape:window-y="-8"
   inkscape:window-maximized="1"
   inkscape:current-layer="Layer_1" />
<g
   id="g6"
   transform="matrix(0.26000433,0,0,0.2600026,0.99974,1)"
   style="fill:url(#linearGradient942);fill-opacity:1">
	<g
   id="g4"
   style="fill:url(#linearGradient942);fill-opacity:1">
		<path
   d="M 149.996,0 C 67.157,0 0.001,67.158 0.001,149.997 c 0,82.837 67.156,150 149.995,150 82.839,0 150,-67.163 150,-150 C 299.996,67.158 232.835,0 149.996,0 Z m 0.003,52.686 88.763,55.35 H 61.236 Z m 89.869,143.737 h -0.009 c 0,8.878 -7.195,16.072 -16.072,16.072 H 76.211 c -8.878,0 -16.072,-7.195 -16.072,-16.072 v -84.865 c 0,-0.939 0.096,-1.852 0.252,-2.749 l 84.808,52.883 c 0.104,0.065 0.215,0.109 0.322,0.169 0.112,0.062 0.226,0.122 0.34,0.179 0.599,0.309 1.216,0.558 1.847,0.721 0.065,0.018 0.13,0.026 0.195,0.041 0.692,0.163 1.393,0.265 2.093,0.265 h 0.005 c 0.005,0 0.01,0 0.01,0 0.7,0 1.401,-0.099 2.093,-0.265 0.065,-0.016 0.13,-0.023 0.195,-0.041 0.63,-0.163 1.245,-0.412 1.847,-0.721 0.114,-0.057 0.228,-0.117 0.34,-0.179 0.106,-0.06 0.218,-0.104 0.322,-0.169 l 84.808,-52.883 c 0.156,0.897 0.252,1.808 0.252,2.749 z"
   id="path2"
   style="fill:url(#linearGradient942);fill-opacity:1" />
	</g>
</g>
<g
   id="g8">
</g>
<g
   id="g10">
</g>
<g
   id="g12">
</g>
<g
   id="g14">
</g>
<g
   id="g16">
</g>
<g
   id="g18">
</g>
<g
   id="g20">
</g>
<g
   id="g22">
</g>
<g
   id="g24">
</g>
<g
   id="g26">
</g>
<g
   id="g28">
</g>
<g
   id="g30">
</g>
<g
   id="g32">
</g>
<g
   id="g34">
</g>
<g
   id="g36">
</g>
</svg>
