<?xml version="1.0" encoding="UTF-8" standalone="no"?>
<svg
   fill="#000000"
   viewBox="0 0 80 80"
   width="80"
   height="80"
   version="1.1"
   id="svg4"
   sodipodi:docname="linkedin.svg"
   inkscape:version="1.1.2 (b8e25be833, 2022-02-05)"
   xmlns:inkscape="http://www.inkscape.org/namespaces/inkscape"
   xmlns:sodipodi="http://sodipodi.sourceforge.net/DTD/sodipodi-0.dtd"
   xmlns:xlink="http://www.w3.org/1999/xlink"
   xmlns="http://www.w3.org/2000/svg"
   xmlns:svg="http://www.w3.org/2000/svg">
  <defs
     id="defs8">
    <linearGradient
       inkscape:collect="always"
       id="linearGradient869">
      <stop
         style="stop-color:#3ee2b5;stop-opacity:1;"
         offset="0"
         id="stop865" />
      <stop
         style="stop-color:#ac61df;stop-opacity:1"
         offset="1"
         id="stop867" />
    </linearGradient>
    <linearGradient
       inkscape:collect="always"
       xlink:href="#linearGradient869"
       id="linearGradient871"
       x1="1"
       y1="40"
       x2="79"
       y2="40"
       gradientUnits="userSpaceOnUse" />
  </defs>
  <sodipodi:namedview
     id="namedview6"
     pagecolor="#505050"
     bordercolor="#eeeeee"
     borderopacity="1"
     inkscape:pageshadow="0"
     inkscape:pageopacity="0"
     inkscape:pagecheckerboard="0"
     showgrid="false"
     inkscape:zoom="6.925"
     inkscape:cx="19.277978"
     inkscape:cy="37.111913"
     inkscape:window-width="1920"
     inkscape:window-height="1017"
     inkscape:window-x="-8"
     inkscape:window-y="-8"
     inkscape:window-maximized="1"
     inkscape:current-layer="svg4" />
  <path
     d="M 40,1 C 18.46225,1 1,18.46225 1,40 1,61.53775 18.46225,79 40,79 61.53775,79 79,61.53775 79,40 79,18.46225 61.53775,1 40,1 Z M 25.362,18.55975 c 2.7365,0 4.55975,1.82325 4.55975,4.25425 0,2.431 -1.82325,4.25425 -4.862,4.25425 C 22.32325,27.0715 20.5,25.245 20.5,22.814 c 0,-2.431 1.82325,-4.25425 4.862,-4.25425 z M 30.25,56.25 H 20.5 v -26 h 9.75 z m 32.5,0 H 53.572 V 42.041 c 0,-3.92925 -2.44725,-4.836 -3.36375,-4.836 -0.9165,0 -3.978,0.6045 -3.978,4.836 0,0.6045 0,14.209 0,14.209 H 36.75 v -26 h 9.4835 v 3.627 c 1.222,-2.11575 3.66925,-3.627 8.25825,-3.627 4.589,0 8.25825,3.627 8.25825,11.791 z"
     id="path2"
     style="stroke-width:3.25;fill:url(#linearGradient871);fill-opacity:1" />
</svg>
