<?xml version="1.0" encoding="UTF-8" standalone="no"?>
<svg
   height="80"
   style="clip-rule:evenodd;fill-rule:evenodd;stroke-linejoin:round;stroke-miterlimit:2"
   version="1.1"
   viewBox="0 0 80 80"
   width="80"
   xml:space="preserve"
   id="svg6"
   sodipodi:docname="medium.svg"
   inkscape:version="1.1.2 (b8e25be833, 2022-02-05)"
   xmlns:inkscape="http://www.inkscape.org/namespaces/inkscape"
   xmlns:sodipodi="http://sodipodi.sourceforge.net/DTD/sodipodi-0.dtd"
   xmlns:xlink="http://www.w3.org/1999/xlink"
   xmlns="http://www.w3.org/2000/svg"
   xmlns:svg="http://www.w3.org/2000/svg"><defs
     id="defs10"><linearGradient
       inkscape:collect="always"
       id="linearGradient872"><stop
         style="stop-color:#3ee2b5;stop-opacity:1;"
         offset="0"
         id="stop868" /><stop
         style="stop-color:#ac61df;stop-opacity:1"
         offset="1"
         id="stop870" /></linearGradient><linearGradient
       inkscape:collect="always"
       xlink:href="#linearGradient872"
       id="linearGradient874"
       x1="2.1014273"
       y1="255.8467"
       x2="509.65808"
       y2="255.84669"
       gradientUnits="userSpaceOnUse" /></defs><sodipodi:namedview
     id="namedview8"
     pagecolor="#505050"
     bordercolor="#eeeeee"
     borderopacity="1"
     inkscape:pageshadow="0"
     inkscape:pageopacity="0"
     inkscape:pagecheckerboard="0"
     showgrid="false"
     width="80px"
     inkscape:zoom="9.1813396"
     inkscape:cx="38.502007"
     inkscape:cy="39.754547"
     inkscape:window-width="1920"
     inkscape:window-height="1017"
     inkscape:window-x="-8"
     inkscape:window-y="-8"
     inkscape:window-maximized="1"
     inkscape:current-layer="g4" /><g
     id="g4"
     transform="matrix(0.15367743,0,0,0.15367743,0.67705806,0.682136)"><path
       d="M 509.65807,255.8467 C 509.65807,115.78303 395.94609,2.0683844 255.88572,2.0683844 h -0.0119 C 115.81341,2.0683844 2.1014273,115.78303 2.1014273,255.8467 c 0,140.06367 113.7119827,253.77832 253.7723527,253.77832 h 0.0119 c 140.06037,0 253.77235,-113.71465 253.77235,-253.77832 z m -228.29707,0.002 c 0,62.383 -50.22663,112.9539 -112.18155,112.9539 -61.95493,0 -112.185534,-50.58283 -112.185534,-112.9539 0,-62.37206 50.226634,-112.95787 112.185534,-112.95787 61.9589,0 112.18155,50.57487 112.18155,112.95787 z m 123.06757,0 c 0,58.72043 -25.11431,106.34079 -56.09277,106.34079 -30.97945,0 -56.09276,-47.62036 -56.09276,-106.34079 0,-58.72043 25.10934,-106.34178 56.08879,-106.34178 30.97945,0 56.09276,47.60643 56.09276,106.34178 z m 50.33701,0 c 0,52.59858 -8.83153,95.26458 -19.72749,95.26458 -10.89695,0 -19.7245,-42.65406 -19.7245,-95.26458 0,-52.61052 8.83053,-95.26457 19.7245,-95.26457 10.89298,0 19.72749,42.65008 19.72749,95.26457 z"
       id="path2"
       style="fill:url(#linearGradient874);fill-opacity:1;stroke-width:0.994441;fill-rule:evenodd" /></g></svg>
