<?xml version="1.0" encoding="UTF-8" standalone="no"?>
<!-- Created with Inkscape (http://www.inkscape.org/) -->

<svg
   width="80mm"
   height="80mm"
   viewBox="0 0 283.46462 283.46459"
   id="svg2"
   version="1.1"
   inkscape:version="1.1.2 (b8e25be833, 2022-02-05)"
   sodipodi:docname="twitter.svg"
   xmlns:inkscape="http://www.inkscape.org/namespaces/inkscape"
   xmlns:sodipodi="http://sodipodi.sourceforge.net/DTD/sodipodi-0.dtd"
   xmlns="http://www.w3.org/2000/svg"
   xmlns:svg="http://www.w3.org/2000/svg"
   xmlns:rdf="http://www.w3.org/1999/02/22-rdf-syntax-ns#"
   xmlns:cc="http://creativecommons.org/ns#"
   xmlns:dc="http://purl.org/dc/elements/1.1/">
  <title
     id="title4225">Twitter logo</title>
  <defs
     id="defs4" />
  <sodipodi:namedview
     id="base"
     pagecolor="#ffffff"
     bordercolor="#666666"
     borderopacity="1.0"
     inkscape:pageopacity="0.0"
     inkscape:pageshadow="2"
     inkscape:zoom="1.4142136"
     inkscape:cx="184.90842"
     inkscape:cy="185.96908"
     inkscape:document-units="px"
     inkscape:current-layer="layer1"
     showgrid="false"
     fit-margin-top="0"
     fit-margin-left="0"
     fit-margin-right="0"
     fit-margin-bottom="0"
     inkscape:window-width="1920"
     inkscape:window-height="1017"
     inkscape:window-x="-8"
     inkscape:window-y="-8"
     inkscape:window-maximized="1"
     inkscape:pagecheckerboard="0"
     height="27.45634mm" />
  <metadata
     id="metadata7">
    <rdf:RDF>
      <cc:Work
         rdf:about="">
        <dc:format>image/svg+xml</dc:format>
        <dc:type
           rdf:resource="http://purl.org/dc/dcmitype/StillImage" />
        <dc:title>Twitter logo</dc:title>
        <cc:license
           rdf:resource="http://artlibre.org/licence/lal" />
        <dc:source>http://www.dafont.com/forum/attach/orig/7/1/71172.png</dc:source>
        <dc:date>18/11/2016</dc:date>
        <dc:creator>
          <cc:Agent>
            <dc:title>Twitter, Inc.</dc:title>
          </cc:Agent>
        </dc:creator>
        <dc:publisher>
          <cc:Agent>
            <dc:title>CMetalCore</dc:title>
          </cc:Agent>
        </dc:publisher>
      </cc:Work>
      <cc:License
         rdf:about="http://creativecommons.org/licenses/by-sa/3.0/">
        <cc:permits
           rdf:resource="http://creativecommons.org/ns#Reproduction" />
        <cc:permits
           rdf:resource="http://creativecommons.org/ns#Distribution" />
        <cc:requires
           rdf:resource="http://creativecommons.org/ns#Notice" />
        <cc:requires
           rdf:resource="http://creativecommons.org/ns#Attribution" />
        <cc:permits
           rdf:resource="http://creativecommons.org/ns#DerivativeWorks" />
        <cc:requires
           rdf:resource="http://creativecommons.org/ns#ShareAlike" />
      </cc:License>
    </rdf:RDF>
  </metadata>
  <g
     inkscape:label="Capa 1"
     inkscape:groupmode="layer"
     id="layer1"
     transform="translate(-50.461389,-83.56061)">
    <path
       fill="#1d9bf0"
       d="m 300.82923,160.0382 c 0.16112,2.85623 0.16112,5.7124 0.16112,8.59509 0,87.83277 -54.33265,189.13063 -153.68219,189.13063 v -0.0551 c -29.34817,0.0551 -58.086703,-10.29293 -82.793092,-29.79955 4.267487,0.63166 8.556317,0.94754 12.855873,0.96078 24.321349,0.0281 47.947489,-10.01669 67.081559,-28.50986 -23.11277,-0.53993 -43.38055,-19.08552 -50.460905,-46.16058 8.096425,1.92171 16.438825,1.52685 24.385515,-1.14514 -25.1984,-6.26531 -43.327093,-33.51142 -43.327093,-65.15389 v -0.84239 c 7.508158,5.14653 15.914743,8.00273 24.513842,8.31862 -23.733094,-19.51985 -31.048745,-58.37528 -16.716911,-88.75402 27.423012,41.52734 67.883712,66.77277 111.317722,69.44475 -4.35303,-23.08681 1.59361,-47.27934 15.62599,-63.50862 21.75443,-25.166491 55.96903,-23.876611 76.41858,2.88264 12.09656,-2.93525 23.69032,-8.39766 34.30015,-16.137113 -4.03212,15.386883 -12.47082,28.457043 -23.74378,36.762593 10.70613,-1.5532 21.1663,-5.08067 31.01667,-10.4641 -7.25151,13.37295 -16.3854,25.02164 -26.95239,34.43292 z"
       id="path10"
       style="fill:#000000;fill-opacity:1;stroke-width:1.18649" />
  </g>
</svg>
